<svg width="22" height="24" viewBox="0 0 22 24" fill="none" xmlns="http://www.w3.org/2000/svg">
<path d="M10.8336 11.5609C12.5787 11.5609 14.0895 10.9913 15.3244 9.86737C16.5588 8.74365 17.1849 7.36871 17.1849 5.78027C17.1849 4.19238 16.559 2.81726 15.3242 1.69318C14.0893 0.569641 12.5785 0 10.8336 0C9.08837 0 7.5777 0.569641 6.34305 1.69336C5.1084 2.81708 4.48232 4.1922 4.48232 5.78027C4.48232 7.36871 5.1084 8.74384 6.34305 9.86755C7.5781 10.9911 9.08898 11.5609 10.8336 11.5609ZM7.43587 2.68781C8.38323 1.82556 9.49456 1.40643 10.8336 1.40643C12.1725 1.40643 13.284 1.82556 14.2316 2.68781C15.1789 3.55023 15.6396 4.56189 15.6396 5.78027C15.6396 6.99902 15.1789 8.0105 14.2316 8.87292C13.284 9.73535 12.1725 10.1545 10.8336 10.1545C9.49496 10.1545 8.38363 9.73517 7.43587 8.87292C6.4883 8.01068 6.0276 6.99902 6.0276 5.78027C6.0276 4.56189 6.4883 3.55023 7.43587 2.68781Z" fill="#272727"/>
<path d="M21.9467 18.4548C21.9111 17.9872 21.8391 17.4771 21.733 16.9384C21.626 16.3956 21.4882 15.8826 21.3232 15.4136C21.1526 14.929 20.9211 14.4503 20.6344 13.9916C20.3372 13.5156 19.988 13.101 19.5961 12.7599C19.1863 12.403 18.6845 12.1161 18.1043 11.9068C17.5261 11.6986 16.8854 11.5931 16.1999 11.5931C15.9308 11.5931 15.6704 11.6937 15.1677 11.9916C14.8583 12.1752 14.4963 12.3876 14.0924 12.6226C13.7469 12.8229 13.279 13.0106 12.701 13.1805C12.1371 13.3466 11.5645 13.4308 10.9992 13.4308C10.4343 13.4308 9.86171 13.3466 9.2974 13.1805C8.72001 13.0107 8.25186 12.8231 7.90704 12.6227C7.50689 12.39 7.14476 12.1776 6.83071 11.9914C6.32836 11.6935 6.06804 11.593 5.79885 11.593C5.11323 11.593 4.47267 11.6986 3.89467 11.907C3.31487 12.1159 2.81292 12.4028 2.40271 12.7601C2.01081 13.1014 1.66156 13.5157 1.36461 13.9916C1.07833 14.4503 0.846572 14.9288 0.67597 15.4138C0.511202 15.8828 0.373393 16.3956 0.266364 16.9384C0.16014 17.4763 0.0883187 17.9866 0.0527096 18.4554C0.017704 18.9137 0 19.3907 0 19.8726C0 21.1254 0.43757 22.1396 1.30044 22.8876C2.15264 23.6257 3.28006 24 4.65152 24H17.3485C18.7195 24 19.847 23.6257 20.6994 22.8876C21.5624 22.1402 22 21.1256 22 19.8724C21.9998 19.3889 21.9819 18.9119 21.9467 18.4548ZM19.6339 21.8687C19.0708 22.3564 18.3232 22.5936 17.3483 22.5936H4.65152C3.67639 22.5936 2.9288 22.3564 2.36589 21.8688C1.81365 21.3904 1.54527 20.7372 1.54527 19.8726C1.54527 19.4229 1.56157 18.9789 1.59416 18.5526C1.62595 18.1344 1.69093 17.675 1.7873 17.1868C1.88246 16.7047 2.00357 16.2523 2.14761 15.8427C2.28582 15.4499 2.47433 15.061 2.7081 14.6863C2.93121 14.3293 3.18792 14.0229 3.47119 13.7761C3.73614 13.5452 4.0701 13.3563 4.46361 13.2145C4.82755 13.0834 5.23655 13.0117 5.68056 13.0009C5.73468 13.027 5.83104 13.077 5.98716 13.1697C6.30483 13.3581 6.67098 13.5731 7.07575 13.8083C7.53203 14.0731 8.11989 14.3123 8.82221 14.5186C9.54023 14.7299 10.2725 14.8372 10.9994 14.8372C11.7263 14.8372 12.4588 14.7299 13.1764 14.5188C13.8793 14.3121 14.467 14.0731 14.9238 13.808C15.3381 13.567 15.694 13.3583 16.0116 13.1697C16.1677 13.0772 16.2641 13.027 16.3182 13.0009C16.7624 13.0117 17.1714 13.0834 17.5356 13.2145C17.9289 13.3563 18.2629 13.5454 18.5278 13.7761C18.8111 14.0228 19.0678 14.3291 19.2909 14.6865C19.5249 15.061 19.7136 15.4501 19.8516 15.8425C19.9958 16.2526 20.1171 16.7049 20.2121 17.1866C20.3083 17.6757 20.3734 18.1353 20.4052 18.5528C20.438 18.9774 20.4545 19.4216 20.4547 19.8726C20.4545 20.7374 20.1861 21.3904 19.6339 21.8687Z" fill="#272727"/>
<path d="M16.2002 12.0928C16.755 12.0928 17.2703 12.168 17.7373 12.3115L17.9346 12.377C18.3981 12.5442 18.7979 12.7621 19.1299 13.0225L19.2676 13.1367C19.5312 13.3661 19.7761 13.635 19.9971 13.9395L20.21 14.2568C20.4111 14.5786 20.5829 14.9095 20.7227 15.2441L20.8516 15.5801C20.9687 15.913 21.0724 16.2717 21.1602 16.6504L21.2422 17.0352C21.3193 17.4269 21.3775 17.8005 21.416 18.1504L21.4482 18.4932C21.4653 18.7151 21.4786 18.9423 21.4873 19.1729L21.5 19.873C21.4999 20.9267 21.1605 21.7577 20.5068 22.3867L20.3721 22.5098C19.6292 23.153 18.6264 23.5 17.3486 23.5H4.65137C3.45316 23.5 2.49725 23.1949 1.77051 22.627L1.62793 22.5098C0.886131 21.8667 0.500098 20.9964 0.5 19.873C0.5 19.6381 0.504133 19.4042 0.512695 19.1738L0.550781 18.4932H0.551758C0.577184 18.1585 0.622118 17.7989 0.686523 17.4199L0.756836 17.0352C0.859711 16.5135 0.991512 16.024 1.14746 15.5801C1.26582 15.2436 1.41664 14.9085 1.59766 14.5811L1.78906 14.2568V14.2559C1.99356 13.9282 2.22328 13.6351 2.47363 13.3799L2.73145 13.1367C3.04421 12.8644 3.42466 12.6334 3.86914 12.4521L4.06445 12.377C4.58206 12.1904 5.16451 12.0928 5.79883 12.0928C5.89085 12.0928 6.00295 12.1122 6.2627 12.2461L6.5752 12.4219H6.57617L7.65527 13.0547H7.65625C7.95048 13.2256 8.31048 13.382 8.72461 13.5234L9.15625 13.6602C9.76443 13.8391 10.3844 13.9306 10.999 13.9307C11.537 13.9307 12.0791 13.861 12.6133 13.7236L12.8418 13.6602C13.2912 13.528 13.6903 13.3817 14.0273 13.2207L14.3428 13.0547H14.3438L15.4229 12.4219C15.9193 12.1277 16.0775 12.0928 16.2002 12.0928ZM16.1006 12.5508C16.0658 12.5676 16.0213 12.5904 15.9648 12.6211L15.7568 12.7393L14.6729 13.376C14.3641 13.5551 13.9788 13.7261 13.5195 13.8848L13.0352 14.0391C12.3619 14.2371 11.6766 14.3369 10.999 14.3369C10.4063 14.3369 9.80822 14.2603 9.2168 14.1084L8.96289 14.0391L8.47949 13.8848C8.17318 13.779 7.89981 13.6674 7.66016 13.5518L7.32715 13.376L6.24219 12.7393C6.07675 12.6411 5.96774 12.5843 5.89844 12.5508L5.78906 12.498L5.66797 12.501C5.23955 12.5114 4.83156 12.5734 4.4541 12.6904L4.29395 12.7441C3.90802 12.8832 3.56064 13.0673 3.26562 13.2979L3.14258 13.3994C2.89905 13.6116 2.67654 13.8592 2.47656 14.1357L2.28418 14.4209V14.4219C2.09513 14.7248 1.93202 15.0377 1.79883 15.3564L1.67578 15.6768C1.56101 16.0031 1.46072 16.3525 1.37598 16.7188L1.29688 17.0898C1.22224 17.4679 1.16492 17.8322 1.12695 18.1768L1.0957 18.5146C1.06209 18.9544 1.04492 19.4115 1.04492 19.873C1.04501 20.792 1.31863 21.555 1.91504 22.1338L2.03809 22.2471C2.71686 22.835 3.59388 23.0937 4.65137 23.0938H17.3486C18.4056 23.0937 19.2811 22.8339 19.96 22.2461L19.9609 22.2471C20.6432 21.6562 20.9548 20.8533 20.9551 19.873V19.8721C20.955 19.6409 20.9499 19.4112 20.9414 19.1846L20.9033 18.5146C20.8782 18.1843 20.8341 17.8321 20.7715 17.4639L20.7031 17.0898C20.6289 16.7133 20.5386 16.3516 20.4336 16.0107L20.3232 15.6768C20.2101 15.355 20.0667 15.0367 19.8955 14.7275L19.7148 14.4219C19.5303 14.1262 19.3223 13.858 19.0928 13.623L18.8564 13.3994C18.6168 13.1908 18.3372 13.0153 18.0264 12.874L17.7051 12.7441C17.2836 12.5924 16.8201 12.5129 16.3301 12.501L16.209 12.498L16.1006 12.5508ZM10.834 0.5C12.4604 0.500078 13.8491 1.02784 14.9873 2.06348V2.0625C16.1241 3.09732 16.6846 4.34109 16.6846 5.78027C16.6846 7.12988 16.1921 8.30663 15.1943 9.30078L14.9883 9.49805C13.8501 10.534 12.4606 11.0605 10.834 11.0605C9.30911 11.0605 7.99234 10.5972 6.89551 9.68555L6.67969 9.49805C5.54313 8.46361 4.98242 7.22001 4.98242 5.78027C4.98242 4.34097 5.5432 3.0979 6.67969 2.06348C7.81778 1.02764 9.207 0.5 10.834 0.5ZM10.834 0.90625C9.46763 0.90625 8.29787 1.31184 7.29688 2.14551L7.09961 2.31836C6.05401 3.27001 5.52734 4.41311 5.52734 5.78027C5.52734 7.06235 5.98971 8.14783 6.90918 9.0625L7.09961 9.24316C8.14375 10.193 9.37708 10.6543 10.834 10.6543C12.1999 10.6542 13.3691 10.2487 14.3701 9.41504L14.5684 9.24316V9.24219C15.6135 8.2906 16.1396 7.14764 16.1396 5.78027C16.1396 4.49857 15.677 3.41378 14.7578 2.49902L14.5684 2.31836L14.3701 2.14551C13.3691 1.31206 12.1999 0.906322 10.834 0.90625Z" stroke="black"/>
</svg>
